:SAMPLES-PER-SECOND 30
:FULLY-SPECIFIED
:DEGREES
295
root  -15.5356 34.8052 -3.8392 -133.716 1.93388 179.597
RightUpLeg  -53.6872 -5.09088 6.98562
RightLeg  5.31623 2.09428 0.0607409
RightFoot  12.2853 0.00592918 0.54876
RightToes  -17.8043 -0.0693448 -0.158938
Spine  5.79244 0.984328 -0.768498
Spine1  11.5408 2.09048 -0.868189
HEad  -46.3225 -4.75336 4.38237
LeftShoulder1  -1.94126e-019 -3.10601e-018 -2.51263e-017
LeftArm  -14.5586 21.4385 -80.7058
LeftForeArm  16.4002 -36.1459 -7.17154
LeftHand  -0.185398 -3.06023 2.78133
RightShoulder  -4.96962e-017 0 -2.36833e-017
RightArm  -19.9223 -17.5947 81.0784
RightForeArm  38.3354 30.5438 4.47032
RightHand  -0.478045 -1.34915 -13.6399
LeftUpLeg  -53.7851 -5.1381 3.30178
LeftLeg  7.37704 14.2037 0.906871
LeftFoot  11.378 -0.284361 3.01545
LeftToes  -13.8317 1.31424e-006 1.14295e-007
296
root  -15.4732 34.8017 -3.60334 -131.914 0.998306 179.555
RightUpLeg  -55.8653 -4.91021 7.24684
RightLeg  5.47105 1.26147 0.0404057
RightFoot  12.6106 0.0184315 0.378297
RightToes  -17.4117 -0.0673916 -0.155539
Spine  6.75034 0.906942 -0.516409
Spine1  13.4538 1.93064 -0.40754
HEad  -44.7589 -5.0009 4.13239
LeftShoulder1  -1.94126e-019 -3.10601e-018 -2.51263e-017
LeftArm  -15.0017 19.9932 -80.8076
LeftForeArm  16.9837 -36.2411 -7.16187
LeftHand  -0.185327 -3.09061 2.77255
RightShoulder  -4.96962e-017 0 -2.36833e-017
RightArm  -19.882 -16.831 80.7878
RightForeArm  37.044 31.8907 4.83949
RightHand  -0.484023 -1.45251 -14.1634
LeftUpLeg  -56.348 -5.3047 3.93425
LeftLeg  7.84698 13.5725 0.978014
LeftFoot  11.9588 -0.299331 3.0188
LeftToes  -14.1097 1.31424e-006 1.14295e-007
297
root  -15.438 34.7998 -3.41028 -129.791 0.491776 179.396
RightUpLeg  -58.5119 -5.05862 7.80633
RightLeg  5.86949 1.26369 0.0493017
RightFoot  12.7414 0.0190408 0.376603
RightToes  -17.0614 -0.0657738 -0.152786
Spine  7.42413 0.933393 -0.355067
Spine1  14.7947 1.97874 -0.110735
HEad  -42.4744 -5.79132 4.33833
LeftShoulder1  -1.94126e-019 -3.10601e-018 -2.51263e-017
LeftArm  -14.6785 18.8711 -80.7611
LeftForeArm  17.397 -35.8604 -7.0269
LeftHand  -0.221032 -3.01237 3.28703
RightShoulder  -4.96962e-017 0 -2.36833e-017
RightArm  -19.33 -16.2097 80.1604
RightForeArm  36.2227 32.7909 5.08941
RightHand  -0.462608 -1.58174 -13.9777
LeftUpLeg  -59.024 -5.20527 4.1358
LeftLeg  8.16807 12.8413 0.997893
LeftFoot  12.4588 -0.306437 2.96839
LeftToes  -14.2825 1.31424e-006 1.14295e-007
298
root  -15.4282 34.795 -3.24339 -128.301 0.469696 179.348
RightUpLeg  -60.3752 -4.7865 7.8854
RightLeg  6.0715 1.107 0.0472407
RightFoot  13.0027 0.0217523 0.344009
RightToes  -16.8474 -0.0645906 -0.151247
Spine  8.54667 1.00762 -0.176237
Spine1  17.0297 2.10757 0.238988
HEad  -41.5902 -6.28441 4.5235
LeftShoulder1  -1.94126e-019 -3.10601e-018 -2.51263e-017
LeftArm  -14.1746 16.8825 -80.7688
LeftForeArm  16.8754 -35.2349 -6.87844
LeftHand  -0.234545 -2.92401 3.5047
RightShoulder  -4.96962e-017 0 -2.36833e-017
RightArm  -19.2196 -14.6419 79.2129
RightForeArm  36.4293 34.0656 5.3836
RightHand  -0.450593 -1.52017 -13.4008
LeftUpLeg  -60.8989 -5.07113 4.29703
LeftLeg  8.35917 12.6684 1.0268
LeftFoot  12.8859 -0.323041 3.02157
LeftToes  -14.6108 1.31424e-006 1.14295e-007
299
root  -15.4377 34.7856 -3.09 -126.197 -0.0720673 179.256
RightUpLeg  -62.9159 -4.80413 8.2719
RightLeg  6.49941 0.989207 0.0497514
RightFoot  12.997 0.0243774 0.312049
RightToes  -16.659 -0.0636715 -0.150149
Spine  9.35891 0.84808 0.06479
Spine1  18.6396 1.78121 0.631157
HEad  -40.2401 -5.9283 4.70913
LeftShoulder1  -1.94126e-019 -3.10601e-018 -2.51263e-017
LeftArm  -14.1191 15.3119 -80.7316
LeftForeArm  16.3212 -34.8051 -6.79135
LeftHand  -0.26084 -2.75842 3.93928
RightShoulder  -4.96962e-017 0 -2.36833e-017
RightArm  -18.4347 -12.8809 78.1668
RightForeArm  35.4966 34.128 5.44357
RightHand  -0.422263 -1.85614 -13.706
LeftUpLeg  -63.6409 -5.30566 4.8325
LeftLeg  8.91066 12.658 1.1476
LeftFoot  13.1588 -0.33626 3.07632
LeftToes  -14.6254 1.31424e-006 1.14295e-007
300
root  -15.4562 34.7641 -3.01161 -124.524 -0.470612 179.105
RightUpLeg  -64.9765 -5.07579 8.82017
RightLeg  6.9811 1.26162 0.073803
RightFoot  12.7799 0.0215966 0.35699
RightToes  -16.9279 -0.0627812 -0.149412
Spine  10.0974 0.732373 0.198346
Spine1  20.0901 1.58493 0.764773
HEad  -37.7163 -6.09958 5.07525
LeftShoulder1  -1.94126e-019 -3.10601e-018 -2.51263e-017
LeftArm  -13.9626 13.6066 -80.4567
LeftForeArm  15.8849 -34.1146 -6.62974
LeftHand  -0.298399 -2.50937 4.59814
RightShoulder  -4.96962e-017 0 -2.36833e-017
RightArm  -18.2181 -10.8581 77.4691
RightForeArm  34.6059 32.9435 5.19453
RightHand  -0.388842 -2.11509 -13.5727
LeftUpLeg  -65.7473 -5.59583 5.28685
LeftLeg  9.3681 12.7503 1.25762
LeftFoot  13.0099 -0.330443 3.05898
LeftToes  -13.8577 1.31424e-006 1.14295e-007
301
root  -15.4825 34.7357 -2.99008 -123.405 -0.312347 179.132
RightUpLeg  -66.4122 -4.98412 9.09163
RightLeg  7.49891 1.59804 0.107692
RightFoot  12.4694 0.0183953 0.40787
RightToes  -16.4578 -0.0619204 -0.148961
Spine  10.9082 0.845618 0.237519
Spine1  21.6711 1.87431 0.727335
HEad  -34.4894 -6.64118 5.51016
LeftShoulder1  -1.94126e-019 -3.10601e-018 -2.51263e-017
LeftArm  -13.6321 11.239 -80.252
LeftForeArm  15.9713 -32.8596 -6.29077
LeftHand  -0.334547 -2.15497 5.34452
RightShoulder  -4.96962e-017 0 -2.36833e-017
RightArm  -18.4737 -8.92611 76.7713
RightForeArm  34.1326 31.9418 4.97235
RightHand  -0.37152 -2.21601 -13.3564
LeftUpLeg  -66.9961 -5.32569 5.11818
LeftLeg  9.66698 12.6096 1.30981
LeftFoot  12.5936 -0.305106 2.92605
LeftToes  -13.0612 1.31424e-006 1.14295e-007
302
root  -15.5115 34.7091 -3.00327 -122.698 -0.332336 179.204
RightUpLeg  -67.3434 -4.78242 9.08483
RightLeg  8.02496 1.41665 0.10866
RightFoot  12.1891 0.0232262 0.344199
RightToes  -16.2036 -0.0610907 -0.148715
Spine  11.9298 0.909977 0.360914
Spine1  23.6534 2.0898 0.773297
HEad  -31.1716 -7.2066 5.66071
LeftShoulder1  -1.94126e-019 -3.10601e-018 -2.51263e-017
LeftArm  -13.7411 8.57335 -80.0403
LeftForeArm  15.6662 -32.2411 -6.14086
LeftHand  -0.347074 -2.18379 5.51873
RightShoulder  -4.96962e-017 0 -2.36833e-017
RightArm  -18.713 -6.89298 75.9738
RightForeArm  33.1361 32.2984 5.10914
RightHand  -0.341101 -2.50998 -13.4534
LeftUpLeg  -67.9429 -5.28396 5.19604
LeftLeg  10.1786 12.7235 1.43535
LeftFoot  12.2702 -0.291047 2.86874
LeftToes  -12.8203 1.31424e-006 1.14295e-007
303
root  -15.542 34.7003 -3.03921 -122.135 -0.646515 179.099
RightUpLeg  -68.1327 -4.77445 8.89104
RightLeg  8.65542 0.978712 0.0862312
RightFoot  11.8975 0.0318502 0.226798
RightToes  -16.0902 -0.0602931 -0.148598
Spine  13.0896 0.835928 0.583397
Spine1  25.8937 2.05095 0.903185
HEad  -28.7564 -7.4428 5.52878
LeftShoulder1  -1.94126e-019 -3.10601e-018 -2.51263e-017
LeftArm  -14.0312 5.84677 -79.7705
LeftForeArm  15.1054 -32.255 -6.16456
LeftHand  -0.364433 -2.27065 5.72606
RightShoulder  -4.96962e-017 0 -2.36833e-017
RightArm  -19.0475 -4.60914 75.1276
RightForeArm  31.1489 32.951 5.37248
RightHand  -0.295516 -2.9026 -13.3858
LeftUpLeg  -68.8594 -5.52055 5.34274
LeftLeg  10.8722 12.7096 1.58839
LeftFoot  12.1092 -0.281496 2.81502
LeftToes  -12.5989 1.31424e-006 1.14295e-007
304
root  -15.5611 34.6866 -3.11154 -121.714 -1.10023 178.923
RightUpLeg  -68.9344 -4.98175 8.82166
RightLeg  9.69484 0.676609 0.0722701
RightFoot  11.4284 0.0387034 0.134716
RightToes  -16.6407 -0.0595287 -0.148531
Spine  14.1563 0.751273 0.8823
Spine1  27.9389 1.99684 1.13125
HEad  -26.6006 -7.74362 5.14299
LeftShoulder1  -1.94126e-019 -3.10601e-018 -2.51263e-017
LeftArm  -14.1787 3.30256 -79.5409
LeftForeArm  13.8696 -32.0415 -6.16901
LeftHand  -0.403809 -2.2911 6.30816
RightShoulder  -4.96962e-017 0 -2.36833e-017
RightArm  -19.4242 -2.63433 74.3043
RightForeArm  29.0068 33.4145 5.60445
RightHand  -0.269615 -3.12637 -13.3411
LeftUpLeg  -69.6365 -5.54714 4.99868
LeftLeg  11.7045 12.0164 1.67915
LeftFoot  11.8947 -0.254319 2.60244
LeftToes  -12.3229 1.31424e-006 1.14295e-007
305
root  -15.5773 34.6658 -3.18113 -121.42 -1.5414 178.942
RightUpLeg  -69.6422 -5.10358 8.94902
RightLeg  10.8022 0.536293 0.0678766
RightFoot  10.9415 0.0428408 0.0808629
RightToes  -16.9882 -0.0587987 -0.148437
Spine  15.0316 0.7483 1.20755
Spine1  29.6107 2.03809 1.523
HEad  -24.1789 -8.05959 4.64735
LeftShoulder1  -1.94126e-019 -3.10601e-018 -2.51263e-017
LeftArm  -14.1793 0.981227 -79.4858
LeftForeArm  12.81 -31.5064 -6.08537
LeftHand  -0.412617 -2.0281 6.65006
RightShoulder  -4.96962e-017 0 -2.36833e-017
RightArm  -19.9506 -1.10007 73.5129
RightForeArm  27.5432 33.6203 5.73818
RightHand  -0.241877 -3.36613 -13.2828
LeftUpLeg  -70.2408 -5.2392 4.41226
LeftLeg  12.5146 10.9785 1.69332
LeftFoot  11.4425 -0.212671 2.28403
LeftToes  -11.8077 1.31424e-006 1.14295e-007
